TITLE ""
FILE "Disc6Track40.mp3" MP3
  TRACK 01 AUDIO
    TITLE "Disc6Track40_01"
    INDEX 01 00:00:00
  TRACK 02 AUDIO
    TITLE "Disc6Track40_02"
    INDEX 01 00:01:12
  TRACK 03 AUDIO
    TITLE "Disc6Track40_03"
    INDEX 01 00:04:18
  TRACK 04 AUDIO
    TITLE "Disc6Track40_04"
    INDEX 01 00:05:43
  TRACK 05 AUDIO
    TITLE "Disc6Track40_05"
    INDEX 01 00:09:39
  TRACK 06 AUDIO
    TITLE "Disc6Track40_06"
    INDEX 01 00:09:68
  TRACK 07 AUDIO
    TITLE "Disc6Track40_07"
    INDEX 01 00:12:47
  TRACK 08 AUDIO
    TITLE "Disc6Track40_08"
    INDEX 01 00:16:11
  TRACK 09 AUDIO
    TITLE "Disc6Track40_09"
    INDEX 01 00:18:63
  TRACK 10 AUDIO
    TITLE "Disc6Track40_10"
    INDEX 01 00:23:15
  TRACK 11 AUDIO
    TITLE "Disc6Track40_11"
    INDEX 01 00:23:45
  TRACK 12 AUDIO
    TITLE "Disc6Track40_12"
    INDEX 01 00:25:06
  TRACK 13 AUDIO
    TITLE "Disc6Track40_13"
    INDEX 01 00:27:17
  TRACK 14 AUDIO
    TITLE "Disc6Track40_14"
    INDEX 01 00:28:52
  TRACK 15 AUDIO
    TITLE "Disc6Track40_15"
    INDEX 01 00:33:14
  TRACK 16 AUDIO
    TITLE "Disc6Track40_16"
    INDEX 01 00:33:43
  TRACK 17 AUDIO
    TITLE "Disc6Track40_17"
    INDEX 01 00:34:68
  TRACK 18 AUDIO
    TITLE "Disc6Track40_18"
    INDEX 01 00:37:35
  TRACK 19 AUDIO
    TITLE "Disc6Track40_19"
    INDEX 01 00:38:58
  TRACK 20 AUDIO
    TITLE "Disc6Track40_20"
    INDEX 01 00:42:50
  TRACK 21 AUDIO
    TITLE "Disc6Track40_21"
    INDEX 01 00:43:06
  TRACK 22 AUDIO
    TITLE "Disc6Track40_22"
    INDEX 01 00:44:21
  TRACK 23 AUDIO
    TITLE "Disc6Track40_23"
    INDEX 01 00:48:50
  TRACK 24 AUDIO
    TITLE "Disc6Track40_24"
    INDEX 01 00:49:66
  TRACK 25 AUDIO
    TITLE "Disc6Track40_25"
    INDEX 01 00:53:28
  TRACK 26 AUDIO
    TITLE "Disc6Track40_26"
    INDEX 01 00:53:57
  TRACK 27 AUDIO
    TITLE "Disc6Track40_27"
    INDEX 01 00:55:03
  TRACK 28 AUDIO
    TITLE "Disc6Track40_28"
    INDEX 01 00:57:12
  TRACK 29 AUDIO
    TITLE "Disc6Track40_29"
    INDEX 01 00:58:31
  TRACK 30 AUDIO
    TITLE "Disc6Track40_30"
    INDEX 01 01:02:33
  TRACK 31 AUDIO
    TITLE "Disc6Track40_31"
    INDEX 01 01:02:62
  TRACK 32 AUDIO
    TITLE "Disc6Track40_32"
    INDEX 01 01:04:02
  TRACK 33 AUDIO
    TITLE "Disc6Track40_33"
    INDEX 01 01:06:64
  TRACK 34 AUDIO
    TITLE "Disc6Track40_34"
    INDEX 01 01:08:02
  TRACK 35 AUDIO
    TITLE "Disc6Track40_35"
    INDEX 01 01:10:13
  TRACK 36 AUDIO
    TITLE "Disc6Track40_36"
    INDEX 01 01:10:44
  TRACK 37 AUDIO
    TITLE "Disc6Track40_37"
    INDEX 01 01:12:04
  TRACK 38 AUDIO
    TITLE "Disc6Track40_38"
    INDEX 01 01:14:36
  TRACK 39 AUDIO
    TITLE "Disc6Track40_39"
    INDEX 01 01:15:67
  TRACK 40 AUDIO
    TITLE "Disc6Track40_40"
    INDEX 01 01:18:69
